<?xml version="1.0" encoding="utf-8"?>
<!-- Generator: Adobe Illustrator 22.0.1, SVG Export Plug-In . SVG Version: 6.00 Build 0)  -->
<svg version="1.1" id="Layer_1" xmlns="http://www.w3.org/2000/svg" xmlns:xlink="http://www.w3.org/1999/xlink" x="0px" y="0px"
	 viewBox="0 0 95.8 55.7" enable-background="new 0 0 95.8 55.7" xml:space="preserve">
<g>
	<g>
		<polygon fill="#FFFFFF" points="2.9,5.6 10.9,2.5 17,6 20.2,4 27.7,11.9 27.7,8.3 36,14.7 37.6,11.5 35.3,10.2 42.8,5.9 54,14.5 
			53.1,11.1 60.8,15 65.1,15 71.6,22.7 82.7,22.7 66.9,14.2 61.3,14.2 42.8,4.9 33.7,9.8 20.3,2.8 17.1,5 11,1.5 2.9,4.6 		"/>
		<path fill="#FFFFFF" d="M2.9,23.3h26.3l-2-2.5c0,0,2.3,2.8,61.1,1.2l-3.5,3.8c0,0-8.4-2.2-50.8-2.7l2.7,1.9c0,0-28.6,0.5-33.9,4.2
			V23.3z"/>
		<g>
			<g>
				<path fill="#FFFFFF" stroke="#FFFFFF" stroke-width="0.5906" stroke-miterlimit="10" d="M9.1,52L3.5,31.9h2.9L9.6,45
					c0.3,1.4,0.6,2.7,0.9,4.1c0.5-2.1,0.9-3.4,1-3.7l4-13.5h3.4l3,10.2c0.8,2.5,1.3,4.9,1.7,7.1c0.3-1.3,0.6-2.7,1.1-4.4L28,31.9
					h2.8L25,52h-2.7l-4.5-15.3c-0.4-1.3-0.6-2.1-0.7-2.4c-0.2,0.9-0.4,1.7-0.6,2.4L12,52H9.1z"/>
				<path fill="#FFFFFF" stroke="#FFFFFF" stroke-width="0.5906" stroke-miterlimit="10" d="M33.2,52V31.9h15.4v2.4H36v6.1h11.7v2.4
					H36v6.8h13V52H33.2z"/>
				<path fill="#FFFFFF" stroke="#FFFFFF" stroke-width="0.5906" stroke-miterlimit="10" d="M50.7,45.5l2.7-0.2
					c0.1,1,0.4,1.8,0.9,2.5c0.5,0.6,1.2,1.2,2.1,1.6c1,0.4,2.1,0.6,3.3,0.6c1.1,0,2-0.2,2.8-0.5c0.8-0.3,1.4-0.7,1.8-1.2
					c0.4-0.5,0.6-1.1,0.6-1.7c0-0.6-0.2-1.2-0.6-1.6c-0.4-0.5-1-0.9-1.9-1.2c-0.6-0.2-1.8-0.5-3.8-1c-2-0.4-3.3-0.9-4.1-1.3
					c-1-0.5-1.8-1.1-2.3-1.9c-0.5-0.7-0.7-1.6-0.7-2.5c0-1,0.3-2,0.9-2.8c0.6-0.9,1.5-1.5,2.7-2c1.2-0.5,2.5-0.7,3.9-0.7
					c1.6,0,3,0.2,4.2,0.7c1.2,0.5,2.1,1.2,2.8,2.1c0.6,0.9,1,2,1,3.2l-2.7,0.2c-0.1-1.3-0.6-2.2-1.5-2.9c-0.8-0.6-2.1-1-3.7-1
					c-1.7,0-2.9,0.3-3.7,0.9c-0.8,0.6-1.2,1.3-1.2,2.1c0,0.7,0.3,1.3,0.8,1.8c0.5,0.5,2,0.9,4.2,1.4c2.3,0.5,3.9,0.9,4.7,1.3
					c1.2,0.5,2.1,1.2,2.7,2c0.6,0.8,0.9,1.8,0.9,2.9c0,1.1-0.3,2.1-1,3c-0.6,0.9-1.6,1.7-2.8,2.2c-1.2,0.5-2.6,0.8-4.1,0.8
					c-1.9,0-3.5-0.3-4.8-0.8c-1.3-0.5-2.3-1.3-3.1-2.4C51.2,48.1,50.8,46.9,50.7,45.5z"/>
				<path fill="#FFFFFF" stroke="#FFFFFF" stroke-width="0.5906" stroke-miterlimit="10" d="M75.7,52V34.3h-7v-2.4h16.8v2.4h-7V52
					H75.7z"/>
			</g>
		</g>
		<g>
			<g>
				<path fill="#183319" stroke="#FFFFFF" stroke-miterlimit="10" d="M80.8,39.3h4.5v0.9h-4.5V39.3z"/>
				<path fill="#183319" stroke="#FFFFFF" stroke-miterlimit="10" d="M80.8,44.2v-0.9h1.7c0.4,0,0.6,0,0.7-0.1
					c0.1,0,0.2-0.1,0.2-0.2c0.1-0.1,0.1-0.2,0.1-0.3c0-0.2,0-0.3-0.1-0.4c-0.1-0.1-0.2-0.2-0.3-0.2c-0.1,0-0.4-0.1-0.8-0.1h-1.5
					v-0.9h3.3v0.8h-0.5c0.4,0.3,0.6,0.6,0.6,1.1c0,0.2,0,0.4-0.1,0.5c-0.1,0.2-0.2,0.3-0.3,0.4c-0.1,0.1-0.2,0.1-0.4,0.2
					c-0.1,0-0.3,0-0.6,0H80.8z"/>
				<path fill="#183319" stroke="#FFFFFF" stroke-miterlimit="10" d="M83.1,48L83,47.1c0.2,0,0.3-0.1,0.4-0.2
					c0.1-0.1,0.1-0.2,0.1-0.4c0-0.2-0.1-0.4-0.2-0.5c-0.1-0.1-0.4-0.2-0.8-0.2c-0.4,0-0.7,0.1-0.8,0.2c-0.2,0.1-0.2,0.3-0.2,0.5
					c0,0.2,0,0.3,0.1,0.4c0.1,0.1,0.3,0.2,0.5,0.2L81.9,48c-0.4-0.1-0.7-0.3-0.9-0.5c-0.2-0.3-0.3-0.6-0.3-1c0-0.5,0.2-0.9,0.5-1.2
					c0.3-0.3,0.7-0.4,1.3-0.4c0.5,0,1,0.1,1.3,0.4c0.3,0.3,0.5,0.7,0.5,1.2c0,0.4-0.1,0.7-0.3,1C83.7,47.7,83.5,47.9,83.1,48z"/>
				<path fill="#183319" stroke="#FFFFFF" stroke-miterlimit="10" d="M80.8,48.8h0.9v0.9h-0.9V48.8z"/>
			</g>
		</g>
	</g>
</g>
</svg>
